<svg width="24" height="24" viewBox="0 0 24 24" fill="none" xmlns="http://www.w3.org/2000/svg">
<path d="M12.75 21.0002C10.9368 21.0019 9.1591 20.498 7.61655 19.5451C6.074 18.5921 4.82772 17.2279 4.01775 15.6057C3.20777 13.9836 2.86618 12.1676 3.03136 10.362C3.19654 8.55638 3.86194 6.83259 4.9528 5.38428C6.20018 3.73503 7.93595 2.5212 9.91311 1.91554L12.75 21.0002ZM12.75 21.0002C14.8653 21.0067 16.9244 20.3191 18.6112 19.0427L12.75 21.0002ZM21.2891 13.6254L21.2904 13.625C21.3339 13.6117 21.3801 13.6105 21.4241 13.6215C21.468 13.6325 21.5082 13.6552 21.5402 13.6872C21.572 13.7193 21.5945 13.7593 21.6054 13.8031C21.6163 13.847 21.615 13.8931 21.6018 13.9363C21.0269 15.8128 19.8749 17.4601 18.3096 18.6439L18.3095 18.644C16.7099 19.8543 14.7574 20.5064 12.7515 20.5002L12.7495 20.5002C11.0293 20.5018 9.34278 20.0238 7.87933 19.1197C6.41588 18.2156 5.23352 16.9214 4.46508 15.3824C3.69664 13.8434 3.37257 12.1206 3.52928 10.4076C3.68597 8.6947 4.31714 7.05946 5.35188 5.68551C6.53578 4.12035 8.18314 2.96842 10.0596 2.39361L10.0603 2.39339C10.1037 2.38002 10.15 2.37874 10.1941 2.38969C10.2382 2.40064 10.2785 2.42341 10.3106 2.45555L10.6627 2.10341L10.3106 2.45555C10.3427 2.48769 10.3655 2.52798 10.3765 2.57208C10.3874 2.6162 10.3861 2.66246 10.3727 2.70589L10.372 2.70835C9.91349 4.22503 9.87505 5.83769 10.2608 7.3745C10.6465 8.91131 11.4419 10.3147 12.5623 11.4351C13.6827 12.5555 15.0861 13.3509 16.6229 13.7366C18.1597 14.1224 19.7724 14.0839 21.2891 13.6254ZM18.0102 18.244L18.011 18.2433C19.1027 17.4174 19.9878 16.3493 20.5966 15.1232L21.0193 14.2717L20.0782 14.4058C19.6384 14.4685 19.1946 14.5001 18.7504 14.5002C16.2978 14.4976 13.9465 13.5222 12.2123 11.7879C10.4782 10.0538 9.50273 7.70266 9.49999 5.25027C9.50026 4.80679 9.5318 4.36387 9.59436 3.92482L9.72841 2.98407L8.87716 3.40637C7.65122 4.01455 6.58315 4.89894 5.757 5.98994L5.7562 5.991C4.48733 7.67593 3.86981 9.76251 4.01731 11.8666C4.16481 13.9707 5.06741 15.9507 6.55895 17.4422C8.0505 18.9336 10.0306 19.836 12.1347 19.9834C14.2388 20.1307 16.3254 19.513 18.0102 18.244Z" stroke="#303461"/>
</svg>
