<svg width="18" height="18" viewBox="0 0 18 18" fill="none" xmlns="http://www.w3.org/2000/svg">
<path d="M8 14C4.54386 14 2 11.4561 2 8C2 4.54386 4.54386 2 8 2C11.4561 2 14 4.54386 14 8C14 11.4561 11.4561 14 8 14ZM8 16C12.4386 16 16 12.4386 16 8C16 3.5614 12.4386 0 8 0C3.5614 0 0 3.5614 0 8C0 12.4386 3.5614 16 8 16ZM17.7018 16.2982L13.7018 12.2982C13.5263 12.1053 13.2807 12 13 12C12.4561 12 12 12.4561 12 13C12 13.2807 12.1053 13.5263 12.2982 13.7018L16.2982 17.7018C16.4737 17.8947 16.7193 18 17 18C17.5439 18 18 17.5439 18 17C18 16.7193 17.8947 16.4737 17.7018 16.2982Z" fill="#F3F5F8"/>
</svg>
